<svg width="358" height="327" viewBox="0 0 358 327" fill="none" xmlns="http://www.w3.org/2000/svg">
<path d="M168.234 94.0242L175.095 126.067L162.968 132.4L148.252 104.459L168.234 94.0242Z" fill="#A9AFC4"/>
<path d="M144.139 102.578L134.632 107.542C133.661 108.051 132.6 108.365 131.507 108.465C130.415 108.565 129.313 108.45 128.266 108.126C127.218 107.802 126.245 107.276 125.402 106.577C124.558 105.879 123.862 105.021 123.351 104.054L120.513 98.6654C119.49 96.7137 119.285 94.4378 119.943 92.336C120.602 90.2343 122.07 88.478 124.026 87.452L133.533 82.4875L144.139 102.578ZM126.118 91.3753C125.208 91.8528 124.525 92.6698 124.218 93.6476C123.912 94.6254 124.007 95.6842 124.483 96.5922L127.321 101.981C127.799 102.889 128.62 103.57 129.602 103.875C130.585 104.181 131.649 104.085 132.56 103.609L138.117 100.707L131.674 88.4736L126.118 91.3753Z" fill="#5E6175"/>
<path d="M141.128 101.642L133.596 105.576C132.161 106.325 130.485 106.476 128.938 105.996C127.391 105.515 126.099 104.442 125.346 103.013L122.508 97.6236C121.755 96.1944 121.604 94.5259 122.086 92.9853C122.569 91.4446 123.647 90.158 125.082 89.4085L132.614 85.4754L141.128 101.642Z" fill="#5E6175"/>
<path d="M154.565 68.0694L134.254 78.6758C133.167 79.243 132.352 80.2166 131.987 81.3823C131.622 82.5481 131.736 83.8106 132.306 84.8921L141.683 102.698C142.254 103.778 143.232 104.589 144.402 104.952C145.573 105.316 146.84 105.203 147.926 104.638L168.237 94.0311C187.96 83.7334 210.45 79.9188 232.484 83.1345L200.098 21.6394C190.226 41.5166 174.286 57.7702 154.565 68.0694Z" fill="#DCD154"/>
<path d="M154.565 68.0692L168.238 94.0309L147.926 104.637C146.84 105.203 145.573 105.316 144.403 104.952C143.232 104.589 142.255 103.778 141.684 102.698L132.303 84.8854C131.733 83.8039 131.618 82.5414 131.984 81.3756C132.349 80.2099 133.164 79.2363 134.25 78.6691L154.565 68.0692Z" fill="#F5F5F5"/>
<path d="M174.341 311.498C202.26 311.498 224.894 288.96 224.894 261.159C224.894 233.357 202.26 210.82 174.341 210.82C146.421 210.82 123.788 233.357 123.788 261.159C123.788 288.96 146.421 311.498 174.341 311.498Z" fill="#F5F5F5"/>
<path d="M253.025 263.38H248.564V258.938H253.025V263.38ZM241.13 263.38H236.669V258.938H241.13V263.38ZM261.284 261.529L259.054 257.665C260.113 257.065 261.053 256.278 261.827 255.34L265.269 258.161C264.158 259.516 262.808 260.658 261.284 261.529ZM268.51 250.143L264.05 249.825C264.05 249.314 264.05 249.24 264.05 245.546H268.51C268.555 248.87 268.57 249.388 268.51 250.143ZM268.555 238.144H264.094V233.702H268.555V238.144Z" fill="#A9AFC4"/>
<path d="M112.019 263.38H107.559V258.938H112.019V263.38ZM100.124 263.38H95.6638V258.938H100.124V263.38ZM87.4043 261.529C85.8701 260.661 84.5093 259.519 83.3898 258.161L86.8319 255.34C87.6055 256.278 88.5454 257.065 89.6048 257.665L87.4043 261.529ZM80.1708 250.143C80.1187 249.403 80.1336 249.226 80.1336 245.546H84.5941C84.5941 249.248 84.5941 249.322 84.5941 249.825L80.1708 250.143ZM84.5941 238.144H80.1336V233.702H84.5941V238.144Z" fill="#A9AFC4"/>
<path d="M174.341 286.906C170.276 286.902 166.379 285.292 163.505 282.43C160.631 279.569 159.015 275.688 159.011 271.641H168.616C168.616 272.768 168.952 273.87 169.581 274.808C170.21 275.745 171.104 276.476 172.15 276.907C173.196 277.339 174.347 277.452 175.457 277.232C176.568 277.012 177.588 276.469 178.388 275.672C179.189 274.874 179.734 273.859 179.955 272.753C180.176 271.647 180.062 270.501 179.629 269.46C179.196 268.418 178.462 267.528 177.521 266.902C176.579 266.275 175.473 265.941 174.341 265.941C171.307 265.941 168.342 265.045 165.82 263.367C163.298 261.689 161.332 259.304 160.171 256.513C159.01 253.723 158.707 250.652 159.298 247.69C159.89 244.727 161.351 242.006 163.496 239.87C165.641 237.734 168.373 236.28 171.348 235.69C174.324 235.101 177.407 235.404 180.21 236.559C183.012 237.715 185.407 239.673 187.093 242.184C188.778 244.696 189.677 247.648 189.677 250.669H180.065C180.065 249.542 179.729 248.439 179.1 247.502C178.471 246.565 177.577 245.834 176.531 245.403C175.485 244.971 174.334 244.858 173.224 245.078C172.113 245.298 171.093 245.841 170.293 246.638C169.492 247.436 168.947 248.451 168.726 249.557C168.505 250.663 168.619 251.809 169.052 252.85C169.485 253.892 170.219 254.782 171.16 255.408C172.102 256.035 173.208 256.369 174.341 256.369C176.383 256.324 178.413 256.686 180.313 257.433C182.212 258.18 183.943 259.298 185.403 260.72C186.863 262.142 188.023 263.841 188.815 265.715C189.607 267.59 190.015 269.603 190.015 271.637C190.015 273.671 189.607 275.685 188.815 277.559C188.023 279.434 186.863 281.132 185.403 282.554C183.943 283.977 182.212 285.094 180.313 285.841C178.413 286.589 176.383 286.95 174.341 286.906Z" fill="#DCD154"/>
<path d="M179.143 230.645H169.538V240.187H179.143V230.645Z" fill="#DCD154"/>
<path d="M179.143 282.124H169.538V291.666H179.143V282.124Z" fill="#DCD154"/>
<path d="M323.986 109.765L313.943 119.761L317.097 122.903L327.139 112.906L323.986 109.765Z" fill="#4E004B"/>
<path d="M306.031 99.7632H301.57V113.903H306.031V99.7632Z" fill="#4E004B"/>
<path d="M337.537 129.893H323.338V134.334H337.537V129.893Z" fill="#4E004B"/>
<path d="M266.325 222.538C294.244 222.538 316.878 200.001 316.878 172.2C316.878 144.398 294.244 121.861 266.325 121.861C238.405 121.861 215.772 144.398 215.772 172.2C215.772 200.001 238.405 222.538 266.325 222.538Z" fill="#F5F5F5"/>
<path d="M82.3639 222.538C110.284 222.538 132.917 200.001 132.917 172.2C132.917 144.398 110.284 121.861 82.3639 121.861C54.4442 121.861 31.8109 144.398 31.8109 172.2C31.8109 200.001 54.4442 222.538 82.3639 222.538Z" fill="#F5F5F5"/>
<path d="M289.2 184.281V198.013C282.898 203.594 274.758 206.677 266.325 206.677C257.891 206.677 249.751 203.594 243.449 198.013V184.281C243.449 182.287 243.844 180.313 244.61 178.471C245.377 176.63 246.5 174.957 247.916 173.547C249.332 172.138 251.013 171.02 252.863 170.258C254.713 169.496 256.695 169.104 258.697 169.105H273.945C275.947 169.104 277.93 169.496 279.78 170.258C281.631 171.02 283.312 172.138 284.729 173.547C286.145 174.956 287.269 176.629 288.036 178.471C288.804 180.313 289.199 182.287 289.2 184.281Z" fill="#C6B92D"/>
<path d="M266.317 169.098C263.214 169.098 260.237 167.87 258.043 165.685C255.849 163.5 254.616 160.536 254.616 157.446V154.736C254.693 151.696 255.96 148.806 258.146 146.682C260.333 144.559 263.267 143.371 266.321 143.371C269.375 143.371 272.309 144.559 274.495 146.682C276.682 148.806 277.949 151.696 278.026 154.736V157.446C278.024 160.537 276.79 163.5 274.594 165.685C272.398 167.87 269.421 169.098 266.317 169.098Z" fill="#C6B92D"/>
<path d="M105.239 184.281V198.013C98.9374 203.594 90.7974 206.677 82.3639 206.677C73.9304 206.677 65.7903 203.594 59.4886 198.013V184.281C59.4896 182.287 59.885 180.313 60.6522 178.471C61.4193 176.629 62.5433 174.956 63.9598 173.547C65.3764 172.138 67.0578 171.02 68.9082 170.258C70.7585 169.496 72.7414 169.104 74.7437 169.105H89.9914C91.9934 169.104 93.976 169.496 95.8259 170.258C97.6758 171.02 99.3567 172.138 100.773 173.547C102.189 174.957 103.312 176.63 104.078 178.471C104.845 180.313 105.239 182.287 105.239 184.281Z" fill="#C6B92D"/>
<path d="M82.3639 169.098C79.2604 169.098 76.2841 167.87 74.0897 165.685C71.8952 163.5 70.6624 160.536 70.6624 157.446V154.736C70.7393 151.696 72.0063 148.806 74.1931 146.682C76.3799 144.559 79.3133 143.371 82.3676 143.371C85.4219 143.371 88.3553 144.559 90.5421 146.682C92.7289 148.806 93.9959 151.696 94.0728 154.736V157.446C94.0709 160.537 92.8364 163.5 90.6407 165.685C88.4451 167.87 85.468 169.098 82.3639 169.098Z" fill="#C6B92D"/>
</svg>
