<svg width="65" height="65" viewBox="0 0 65 65" fill="none" xmlns="http://www.w3.org/2000/svg">
<circle cx="32.5" cy="32.5" r="32.5" fill="#6A0F65"/>
<path d="M46.7453 36.5216L39.3844 33.3881L39.3641 33.3792C38.9819 33.2239 38.5651 33.1616 38.1512 33.1979C37.7373 33.2342 37.3395 33.3679 36.9938 33.587C36.9531 33.6125 36.9139 33.6403 36.8766 33.6701L33.0735 36.7502C30.6641 35.6384 28.1766 33.2931 27.0063 31.0339L30.2531 27.366C30.2844 27.3289 30.3141 27.2918 30.3422 27.2517C30.5679 26.9241 30.7048 26.5486 30.7408 26.1585C30.7768 25.7685 30.7107 25.3761 30.5485 25.0162V24.9984L27.2406 17.9936C27.0262 17.5235 26.6574 17.1318 26.1894 16.8771C25.7213 16.6225 25.1792 16.5184 24.6438 16.5805C22.5265 16.8452 20.5831 17.833 19.1765 19.3594C17.7698 20.8858 16.9962 22.8465 17 24.8752C17 36.6611 27.0938 46.2502 39.5 46.2502C41.6355 46.2538 43.6994 45.5189 45.3061 44.1826C46.9129 42.8463 47.9527 41 48.2313 38.9886C48.2968 38.4802 48.1875 37.9652 47.9197 37.5206C47.6519 37.076 47.2399 36.7256 46.7453 36.5216ZM39.5 43.8752C34.1975 43.8697 29.1137 41.8661 25.3643 38.3041C21.6148 34.7421 19.5058 29.9126 19.5 24.8752C19.4941 23.4257 20.0438 22.0237 21.0465 20.9311C22.0491 19.8384 23.4361 19.1299 24.9485 18.9377C24.9478 18.9436 24.9478 18.9496 24.9485 18.9555L28.2297 25.9321L25 29.6044C24.9672 29.6402 24.9375 29.6785 24.911 29.7187C24.6758 30.0615 24.5379 30.4561 24.5105 30.8644C24.4831 31.2727 24.5672 31.6808 24.7547 32.0492C26.1703 34.7997 29.0875 37.5503 32.0141 38.8936C32.4046 39.07 32.8367 39.1472 33.2681 39.1175C33.6994 39.0879 34.1153 38.9524 34.475 38.7244C34.5151 38.6987 34.5537 38.671 34.5906 38.6413L38.3891 35.5627L45.7328 38.6873H45.75C45.5502 40.1261 44.8054 41.4464 43.6551 42.4012C42.5047 43.3561 41.0276 43.8801 39.5 43.8752Z" fill="white"/>
</svg>
