<svg width="64" height="64" viewBox="0 0 64 64" fill="none" xmlns="http://www.w3.org/2000/svg">
<g clip-path="url(#clip0_62_2655)">
<path d="M22.625 39.5H13.25C12.7527 39.5 12.2758 39.3025 11.9242 38.9508C11.5725 38.5992 11.375 38.1223 11.375 37.625C11.375 37.1277 11.5725 36.6508 11.9242 36.2992C12.2758 35.9475 12.7527 35.75 13.25 35.75H22.625C23.1223 35.75 23.5992 35.9475 23.9508 36.2992C24.3025 36.6508 24.5 37.1277 24.5 37.625C24.5 38.1223 24.3025 38.5992 23.9508 38.9508C23.5992 39.3025 23.1223 39.5 22.625 39.5Z" fill="#6A0F65"/>
<path d="M50.75 39.5H41.375C40.8777 39.5 40.4008 39.3025 40.0492 38.9508C39.6975 38.5992 39.5 38.1223 39.5 37.625C39.5 37.1277 39.6975 36.6508 40.0492 36.2992C40.4008 35.9475 40.8777 35.75 41.375 35.75H50.75C51.2473 35.75 51.7242 35.9475 52.0758 36.2992C52.4275 36.6508 52.625 37.1277 52.625 37.625C52.625 38.1223 52.4275 38.5992 52.0758 38.9508C51.7242 39.3025 51.2473 39.5 50.75 39.5Z" fill="#6A0F65"/>
<path d="M23 59.9375C22.5665 59.7129 22.2377 59.328 22.0835 58.8648C21.9294 58.4015 21.962 57.8964 22.1745 57.4568C22.3869 57.0172 22.7625 56.6778 23.2213 56.5108C23.6801 56.3438 24.1859 56.3624 24.6313 56.5625C27.2043 57.8115 30.0527 58.3859 32.9087 58.2319C35.7648 58.0779 38.5348 57.2004 40.9586 55.682C43.3825 54.1636 45.3806 52.054 46.7654 49.5514C48.1502 47.0487 48.8761 44.2352 48.875 41.375V32H43.25V41.375C43.25 44.3587 42.0647 47.2202 39.955 49.33C37.8452 51.4397 34.9837 52.625 32 52.625C29.0163 52.625 26.1548 51.4397 24.0451 49.33C21.9353 47.2202 20.75 44.3587 20.75 41.375V32H15.125V41.375C15.1113 45.0285 16.297 48.5854 18.5 51.5C18.7984 51.8978 18.9265 52.3979 18.8562 52.8902C18.7858 53.3825 18.5228 53.8266 18.125 54.125C17.7272 54.4234 17.2271 54.5515 16.7348 54.4812C16.2426 54.4108 15.7984 54.1478 15.5 53.75C12.8114 50.1857 11.3627 45.8396 11.375 41.375V32C11.375 31.0054 11.7701 30.0516 12.4734 29.3484C13.1766 28.6451 14.1304 28.25 15.125 28.25H20.75C21.7446 28.25 22.6984 28.6451 23.4017 29.3484C24.1049 30.0516 24.5 31.0054 24.5 32V41.375C24.5 43.3641 25.2902 45.2718 26.6967 46.6783C28.1032 48.0848 30.0109 48.875 32 48.875C33.9891 48.875 35.8968 48.0848 37.3033 46.6783C38.7098 45.2718 39.5 43.3641 39.5 41.375V32C39.5 31.0054 39.8951 30.0516 40.5984 29.3484C41.3016 28.6451 42.2554 28.25 43.25 28.25H48.875C49.8696 28.25 50.8234 28.6451 51.5267 29.3484C52.2299 30.0516 52.625 31.0054 52.625 32V41.375C52.6258 44.8699 51.7385 48.3078 50.0463 51.3658C48.3542 54.4237 45.9127 57.0016 42.9511 58.8573C39.9895 60.7129 36.6049 61.7856 33.1151 61.9746C29.6253 62.1635 26.1446 61.4626 23 59.9375Z" fill="#9F9316"/>
<path d="M37.2313 14.8624C38.3004 13.8218 39.0348 12.4859 39.3407 11.0256C39.6466 9.5653 39.5099 8.04696 38.9483 6.66473C38.3867 5.2825 37.4255 4.09919 36.1878 3.26611C34.9501 2.43303 33.492 1.98804 32 1.98804C30.508 1.98804 29.0499 2.43303 27.8122 3.26611C26.5745 4.09919 25.6133 5.2825 25.0517 6.66473C24.4901 8.04696 24.3534 9.5653 24.6593 11.0256C24.9652 12.4859 25.6996 13.8218 26.7688 14.8624C25.4956 15.7185 24.4521 16.8739 23.7296 18.2273C23.0071 19.5807 22.6278 21.0908 22.625 22.6249C22.625 23.1222 22.8225 23.5991 23.1742 23.9507C23.5258 24.3024 24.0027 24.4999 24.5 24.4999H39.5C39.9973 24.4999 40.4742 24.3024 40.8258 23.9507C41.1775 23.5991 41.375 23.1222 41.375 22.6249C41.3722 21.0908 40.9929 19.5807 40.2704 18.2273C39.5479 16.8739 38.5044 15.7185 37.2313 14.8624ZM28.25 9.49992C28.25 8.75824 28.4699 8.03322 28.882 7.41653C29.294 6.79985 29.8797 6.3192 30.5649 6.03538C31.2502 5.75155 32.0042 5.67728 32.7316 5.82198C33.459 5.96667 34.1272 6.32383 34.6516 6.84827C35.1761 7.37272 35.5333 8.04091 35.6779 8.76833C35.8226 9.49576 35.7484 10.2498 35.4645 10.935C35.1807 11.6202 34.7001 12.2059 34.0834 12.6179C33.4667 13.03 32.7417 13.2499 32 13.2499C31.0054 13.2499 30.0516 12.8548 29.3484 12.1516C28.6451 11.4483 28.25 10.4945 28.25 9.49992ZM26.6938 20.7499C27.0803 19.6512 27.7983 18.6995 28.7488 18.0263C29.6993 17.3531 30.8353 16.9916 32 16.9916C33.1647 16.9916 34.3007 17.3531 35.2512 18.0263C36.2017 18.6995 36.9197 19.6512 37.3062 20.7499H26.6938Z" fill="#6A0F65"/>
<path d="M17 20.75C16.6804 20.749 16.3663 20.6664 16.0876 20.5099C15.8089 20.3534 15.5749 20.1282 15.4077 19.8558C15.2405 19.5834 15.1457 19.2728 15.1323 18.9535C15.1189 18.6341 15.1874 18.3167 15.3313 18.0312L16.5875 15.5L14.7125 13.625C14.1568 13.0673 13.7908 12.3488 13.6663 11.5714C13.5418 10.794 13.6651 9.99713 14.0188 9.29374L15.2938 6.74374C15.5378 6.33809 15.9264 6.03979 16.3813 5.90873C16.8362 5.77767 17.3239 5.82356 17.7464 6.03718C18.1689 6.2508 18.4949 6.61634 18.659 7.0604C18.8232 7.50447 18.8133 7.99419 18.6313 8.43124L17.4125 11L19.2875 12.875C19.8432 13.4327 20.2092 14.1512 20.3337 14.9286C20.4582 15.706 20.3349 16.5028 19.9813 17.2062L18.6688 19.7187C18.5129 20.028 18.2746 20.288 17.98 20.47C17.6855 20.652 17.3463 20.7489 17 20.75Z" fill="#9F9316"/>
<path d="M47 20.75C46.6804 20.749 46.3663 20.6664 46.0876 20.5099C45.8089 20.3534 45.5749 20.1282 45.4077 19.8558C45.2405 19.5834 45.1457 19.2728 45.1323 18.9535C45.1189 18.6341 45.1874 18.3167 45.3312 18.0312L46.5875 15.5L44.7125 13.625C44.1568 13.0673 43.7908 12.3488 43.6663 11.5714C43.5418 10.794 43.6651 9.99713 44.0187 9.29374L45.2937 6.74374C45.5378 6.33809 45.9263 6.03979 46.3813 5.90873C46.8362 5.77767 47.3239 5.82356 47.7464 6.03718C48.1689 6.2508 48.4949 6.61634 48.659 7.0604C48.8232 7.50447 48.8132 7.99419 48.6312 8.43124L47.4125 11L49.2875 12.875C49.8432 13.4327 50.2092 14.1512 50.3337 14.9286C50.4582 15.706 50.3349 16.5028 49.9812 17.2062L48.7062 19.7562C48.5424 20.0642 48.2959 20.3204 47.9945 20.4959C47.6931 20.6715 47.3487 20.7595 47 20.75Z" fill="#9F9316"/>
</g>
<defs>
<clipPath id="clip0_62_2655">
<rect width="60" height="60" fill="white" transform="translate(2 2)"/>
</clipPath>
</defs>
</svg>
