<svg width="28" height="28" viewBox="0 0 28 28" fill="none" xmlns="http://www.w3.org/2000/svg">
<path d="M18.585 16.835H17.6633L17.3367 16.52C18.0658 15.673 18.5987 14.6752 18.8972 13.5982C19.1957 12.5212 19.2524 11.3915 19.0633 10.29C18.515 7.04668 15.8083 4.45668 12.5417 4.06001C11.3932 3.91472 10.2268 4.03408 9.13154 4.40895C8.03632 4.78382 7.04136 5.40427 6.22282 6.22282C5.40427 7.04136 4.78382 8.03632 4.40895 9.13154C4.03408 10.2268 3.91472 11.3932 4.06001 12.5417C4.45668 15.8083 7.04668 18.515 10.29 19.0633C11.3915 19.2524 12.5212 19.1957 13.5982 18.8972C14.6752 18.5987 15.673 18.0658 16.52 17.3367L16.835 17.6633V18.585L21.7933 23.5433C22.2717 24.0217 23.0533 24.0217 23.5317 23.5433C24.01 23.065 24.01 22.2833 23.5317 21.805L18.585 16.835ZM11.585 16.835C8.68001 16.835 6.33501 14.49 6.33501 11.585C6.33501 8.68001 8.68001 6.33501 11.585 6.33501C14.49 6.33501 16.835 8.68001 16.835 11.585C16.835 14.49 14.49 16.835 11.585 16.835Z" fill="#C6B92D"/>
</svg>
