<svg width="468" height="416" viewBox="0 0 468 416" fill="none" xmlns="http://www.w3.org/2000/svg">
<path d="M395.757 197.955H387.437C386.869 197.959 386.312 197.792 385.84 197.474C385.368 197.156 385.003 196.703 384.793 196.175C384.681 195.901 384.57 195.627 384.45 195.319C384.233 194.796 384.177 194.221 384.288 193.666C384.399 193.111 384.673 192.602 385.075 192.203L391.195 186.083C391.461 185.818 391.673 185.502 391.817 185.155C391.961 184.807 392.035 184.435 392.035 184.059C392.035 183.683 391.961 183.31 391.817 182.963C391.673 182.616 391.461 182.3 391.195 182.034L379.468 170.308C379.203 170.042 378.887 169.83 378.54 169.686C378.193 169.542 377.82 169.468 377.444 169.468C377.068 169.468 376.696 169.542 376.348 169.686C376.001 169.83 375.685 170.042 375.42 170.308L369.428 176.3C369.011 176.707 368.481 176.98 367.907 177.083C367.333 177.185 366.742 177.112 366.21 176.873L365.705 176.659C365.166 176.448 364.702 176.081 364.373 175.606C364.044 175.13 363.864 174.567 363.856 173.988V165.189C363.856 164.813 363.782 164.441 363.637 164.093C363.493 163.746 363.282 163.43 363.015 163.165C362.749 162.899 362.433 162.689 362.085 162.545C361.737 162.402 361.365 162.329 360.988 162.33H344.374C343.998 162.329 343.625 162.402 343.278 162.545C342.93 162.689 342.614 162.899 342.347 163.165C342.081 163.43 341.869 163.746 341.725 164.093C341.581 164.441 341.507 164.813 341.507 165.189V174.048C341.501 174.628 341.321 175.193 340.992 175.671C340.663 176.148 340.198 176.516 339.658 176.728L339.384 176.839C338.852 177.074 338.262 177.144 337.69 177.04C337.118 176.936 336.59 176.663 336.174 176.257L329.669 169.751C329.403 169.485 329.088 169.274 328.74 169.13C328.393 168.986 328.021 168.911 327.645 168.911C327.268 168.911 326.896 168.986 326.549 169.13C326.201 169.274 325.886 169.485 325.62 169.751L313.894 181.478C313.627 181.744 313.416 182.059 313.272 182.407C313.128 182.754 313.053 183.126 313.053 183.502C313.053 183.879 313.128 184.251 313.272 184.598C313.416 184.946 313.627 185.261 313.894 185.527L320.365 191.998C320.772 192.415 321.045 192.944 321.149 193.518C321.252 194.091 321.182 194.683 320.947 195.216V195.293C320.733 195.829 320.365 196.289 319.89 196.615C319.414 196.941 318.853 197.119 318.276 197.125H308.775C308.399 197.125 308.026 197.199 307.679 197.343C307.331 197.488 307.016 197.699 306.75 197.965C306.485 198.232 306.274 198.548 306.131 198.896C305.988 199.244 305.915 199.616 305.916 199.992V216.572C305.915 216.949 305.988 217.321 306.131 217.669C306.274 218.017 306.485 218.333 306.75 218.599C307.016 218.866 307.331 219.077 307.679 219.221C308.026 219.366 308.399 219.44 308.775 219.44H317.994C318.578 219.447 319.146 219.63 319.625 219.964C320.104 220.299 320.472 220.769 320.681 221.314C320.903 221.844 320.964 222.428 320.858 222.992C320.751 223.556 320.482 224.077 320.082 224.49L313.32 231.243C313.053 231.51 312.842 231.826 312.698 232.174C312.553 232.522 312.479 232.895 312.479 233.272C312.479 233.649 312.553 234.022 312.698 234.37C312.842 234.718 313.053 235.034 313.32 235.301L325.047 247.027C325.585 247.561 326.313 247.86 327.071 247.86C327.829 247.86 328.557 247.561 329.095 247.027L335.489 240.633C335.911 240.222 336.448 239.949 337.029 239.85C337.61 239.75 338.207 239.83 338.742 240.077L338.896 240.145C339.424 240.361 339.876 240.728 340.196 241.201C340.516 241.673 340.689 242.229 340.694 242.799V252.172C340.694 252.932 340.996 253.661 341.533 254.199C342.071 254.737 342.801 255.039 343.561 255.039H360.141C360.901 255.039 361.631 254.737 362.169 254.199C362.706 253.661 363.008 252.932 363.008 252.172V243.526C363.006 242.953 363.177 242.393 363.499 241.919C363.822 241.446 364.28 241.081 364.814 240.873L365.388 240.642C365.906 240.431 366.475 240.378 367.023 240.489C367.571 240.601 368.074 240.871 368.469 241.267L374.846 247.644C375.113 247.91 375.429 248.122 375.777 248.266C376.125 248.41 376.498 248.485 376.875 248.485C377.252 248.485 377.625 248.41 377.973 248.266C378.321 248.122 378.637 247.91 378.904 247.644L390.63 235.917C391.164 235.378 391.463 234.651 391.463 233.893C391.463 233.134 391.164 232.407 390.63 231.868L384.681 225.928C384.275 225.523 384.001 225.005 383.894 224.441C383.787 223.878 383.853 223.295 384.082 222.77C384.202 222.513 384.313 222.256 384.416 221.999C384.637 221.487 385.004 221.051 385.471 220.746C385.939 220.442 386.486 220.282 387.044 220.287H395.774C396.535 220.287 397.264 219.985 397.802 219.447C398.34 218.91 398.642 218.18 398.642 217.42V200.823C398.642 200.445 398.567 200.07 398.422 199.721C398.277 199.372 398.064 199.056 397.796 198.789C397.528 198.523 397.21 198.312 396.86 198.169C396.51 198.026 396.135 197.953 395.757 197.955ZM352.249 225.269C348.972 225.269 345.768 224.297 343.042 222.476C340.317 220.655 338.193 218.067 336.939 215.039C335.685 212.011 335.357 208.679 335.996 205.465C336.636 202.25 338.214 199.297 340.531 196.98C342.849 194.662 345.802 193.084 349.016 192.445C352.231 191.805 355.563 192.133 358.591 193.388C361.619 194.642 364.207 196.766 366.028 199.491C367.848 202.216 368.82 205.42 368.82 208.698C368.821 210.874 368.394 213.029 367.561 215.04C366.729 217.051 365.508 218.879 363.969 220.418C362.43 221.957 360.603 223.177 358.592 224.01C356.581 224.842 354.426 225.27 352.249 225.269Z" fill="#D8DBDE"/>
<path d="M342.586 135.83H120.602C114.744 135.83 109.996 140.578 109.996 146.435V295.5C109.996 301.357 114.744 306.106 120.602 306.106H342.586C348.443 306.106 353.191 301.357 353.191 295.5V146.435C353.191 140.578 348.443 135.83 342.586 135.83Z" fill="#0E0F2D"/>
<path d="M110.082 296.776C110.392 299.348 111.633 301.718 113.571 303.437C115.51 305.156 118.011 306.105 120.602 306.106H342.586C345.177 306.105 347.678 305.156 349.616 303.437C351.554 301.718 352.796 299.348 353.105 296.776H110.082Z" fill="#E5E5E5"/>
<path d="M333.924 144.492H129.264C123.407 144.492 118.659 149.24 118.659 155.098V283.269C118.659 289.126 123.407 293.874 129.264 293.874H333.924C339.781 293.874 344.529 289.126 344.529 283.269V155.098C344.529 149.24 339.781 144.492 333.924 144.492Z" fill="#C6B92D"/>
<path d="M255.885 246.308H156.919V249.621H255.885V246.308Z" fill="#FFF58A"/>
<path d="M278.945 246.308H259.438V249.621H278.945V246.308Z" fill="#FFF58A"/>
<path d="M300.729 246.308H281.222V249.621H300.729V246.308Z" fill="white"/>
<path d="M278.945 258.934H259.438V262.246H278.945V258.934Z" fill="#FFF58A"/>
<path d="M278.937 265.405H215.989V268.717H278.937V265.405Z" fill="#FFF58A"/>
<path d="M300.729 258.934H281.222V262.246H300.729V258.934Z" fill="white"/>
<path d="M278.945 252.625H179.979V255.938H278.945V252.625Z" fill="white"/>
<path d="M300.567 252.625H281.059V255.938H300.567V252.625Z" fill="#FFF58A"/>
<path d="M300.567 265.405H281.059V268.717H300.567V265.405Z" fill="#FFF58A"/>
<path d="M136.514 161.269C138.584 161.269 140.263 159.59 140.263 157.52C140.263 155.449 138.584 153.771 136.514 153.771C134.443 153.771 132.765 155.449 132.765 157.52C132.765 159.59 134.443 161.269 136.514 161.269Z" fill="white"/>
<path d="M149.002 161.269C151.072 161.269 152.751 159.59 152.751 157.52C152.751 155.449 151.072 153.771 149.002 153.771C146.931 153.771 145.253 155.449 145.253 157.52C145.253 159.59 146.931 161.269 149.002 161.269Z" fill="white"/>
<path d="M161.499 161.269C163.57 161.269 165.248 159.59 165.248 157.52C165.248 155.449 163.57 153.771 161.499 153.771C159.429 153.771 157.75 155.449 157.75 157.52C157.75 159.59 159.429 161.269 161.499 161.269Z" fill="white"/>
<path d="M125.472 165.848H335.045" stroke="white" stroke-width="0.97" stroke-miterlimit="10"/>
<path d="M363.625 324.671H99.5618C96.5806 324.681 93.6684 323.775 91.2189 322.076C88.7695 320.377 86.9011 317.966 85.8665 315.17L81.0902 302.219H382.096L377.286 315.204C376.248 317.988 374.382 320.388 371.94 322.08C369.498 323.773 366.596 324.677 363.625 324.671Z" fill="#D8DBDE"/>
<path d="M85.5499 314.203L85.9008 315.153C86.9354 317.949 88.8038 320.359 91.2533 322.059C93.7027 323.758 96.615 324.664 99.5961 324.654H363.659C366.64 324.664 369.553 323.758 372.002 322.059C374.451 320.359 376.32 317.949 377.354 315.153L377.68 314.203H85.5499Z" fill="#E5E5E5"/>
<path d="M136.779 339.882C139.629 340.738 140.93 342.544 140.93 346.815V356.736C140.93 359.646 142.42 361.315 145.458 361.315H146.571V368.873H142.976C135.273 368.873 131.267 364.91 131.267 357.788V346.584C131.267 344.607 130.214 343.674 128.536 343.674H126.49V336.115H128.536C130.248 336.115 131.267 335.183 131.267 333.205V321.992C131.267 314.862 135.23 310.865 142.976 310.865H146.571V318.483H145.458C142.42 318.483 140.93 320.152 140.93 323.071V332.983C140.93 337.228 139.629 339.026 136.779 339.882Z" fill="#C6B92D"/>
<path d="M145.887 351.3C145.887 349.711 146.518 348.187 147.642 347.063C148.765 345.94 150.289 345.308 151.878 345.308C153.468 345.308 154.992 345.94 156.115 347.063C157.239 348.187 157.87 349.711 157.87 351.3C157.87 352.889 157.239 354.413 156.115 355.537C154.992 356.66 153.468 357.292 151.878 357.292C150.289 357.292 148.765 356.66 147.642 355.537C146.518 354.413 145.887 352.889 145.887 351.3ZM162.432 351.3C162.432 349.711 163.064 348.187 164.187 347.063C165.311 345.94 166.835 345.308 168.424 345.308C170.013 345.308 171.537 345.94 172.661 347.063C173.785 348.187 174.416 349.711 174.416 351.3C174.416 352.889 173.785 354.413 172.661 355.537C171.537 356.66 170.013 357.292 168.424 357.292C166.835 357.292 165.311 356.66 164.187 355.537C163.064 354.413 162.432 352.889 162.432 351.3ZM179.038 351.3C179.038 349.711 179.669 348.187 180.793 347.063C181.917 345.94 183.441 345.308 185.03 345.308C186.619 345.308 188.143 345.94 189.266 347.063C190.39 348.187 191.021 349.711 191.021 351.3C191.021 352.889 190.39 354.413 189.266 355.537C188.143 356.66 186.619 357.292 185.03 357.292C183.441 357.292 181.917 356.66 180.793 355.537C179.669 354.413 179.038 352.889 179.038 351.3Z" fill="#C6B92D"/>
<path d="M210.52 336.115V343.674H208.474C206.762 343.674 205.743 344.607 205.743 346.584V357.805C205.743 364.927 201.78 368.89 194.034 368.89H190.439V361.332H191.56C194.59 361.332 196.08 359.663 196.08 356.753V346.832C196.08 342.552 197.381 340.763 200.231 339.899C197.381 339.043 196.08 337.228 196.08 332.957V323.045C196.08 320.126 194.59 318.457 191.56 318.457H190.439V310.899H194.034C201.78 310.899 205.743 314.862 205.743 322.026V333.239C205.743 335.217 206.796 336.15 208.474 336.15L210.52 336.115Z" fill="#C6B92D"/>
<path d="M372.219 268.486H303.528V365.355H372.219V268.486Z" fill="white" stroke="#D8DBDE" stroke-width="2.88" stroke-miterlimit="10"/>
<path d="M363.36 280.932H312.199V283.44H363.36V280.932Z" fill="#C6B92D"/>
<path d="M346.189 285.622H312.199V288.13H346.189V285.622Z" fill="#C6B92D"/>
<path d="M356.649 290.365H312.199V292.872H356.649V290.365Z" fill="#C6B92D"/>
<path d="M353.525 295.021H312.199V297.529H353.525V295.021Z" fill="#C6B92D"/>
<path d="M353.525 335.533H312.199V338.041H353.525V335.533Z" fill="#C6B92D"/>
<path d="M342.218 340.387H312.199V342.895H342.218V340.387Z" fill="#C6B92D"/>
<path d="M346.283 345.377H312.199V347.885H346.283V345.377Z" fill="#C6B92D"/>
<path d="M332.1 48H198.725C194.966 48 191.92 51.0466 191.92 54.8049V65.4444C191.92 69.2026 194.966 72.2493 198.725 72.2493H332.1C335.858 72.2493 338.905 69.2026 338.905 65.4444V54.8049C338.905 51.0466 335.858 48 332.1 48Z" fill="white" stroke="#D8DBDE" stroke-width="2" stroke-miterlimit="10"/>
<path d="M332.109 48H295.619C293.649 48 291.759 48.7828 290.366 50.1761C288.972 51.5695 288.19 53.4592 288.19 55.4297V64.8452C288.189 65.8212 288.38 66.7879 288.753 67.6898C289.126 68.5917 289.673 69.4112 290.363 70.1014C291.053 70.7915 291.873 71.3387 292.775 71.7117C293.677 72.0847 294.643 72.2761 295.619 72.275H332.109C333.911 72.275 335.64 71.5589 336.915 70.2844C338.189 69.0098 338.905 67.2811 338.905 65.4787V54.8477C338.912 53.9508 338.741 53.0616 338.403 52.2311C338.064 51.4006 337.565 50.6453 336.933 50.0087C336.301 49.3722 335.55 48.867 334.722 48.5222C333.894 48.1775 333.006 48 332.109 48Z" fill="#C6B92D"/>
<path d="M332.1 78.241H198.725C194.966 78.241 191.92 81.2876 191.92 85.0458V95.6854C191.92 99.4436 194.966 102.49 198.725 102.49H332.1C335.858 102.49 338.905 99.4436 338.905 95.6854V85.0458C338.905 81.2876 335.858 78.241 332.1 78.241Z" fill="white" stroke="#D8DBDE" stroke-width="2" stroke-miterlimit="10"/>
<path d="M332.109 78.241H295.619C293.65 78.241 291.762 79.0226 290.369 80.4141C288.976 81.8055 288.192 83.6931 288.19 85.6621V95.0777C288.189 96.0541 288.38 97.0211 288.753 97.9235C289.126 98.8259 289.673 99.646 290.363 100.337C291.053 101.028 291.872 101.576 292.774 101.95C293.676 102.323 294.643 102.516 295.619 102.516H332.109C333.006 102.516 333.894 102.338 334.722 101.994C335.55 101.649 336.301 101.144 336.933 100.507C337.565 99.8707 338.064 99.1154 338.403 98.2849C338.741 97.4544 338.912 96.5651 338.905 95.6683V85.0458C338.906 84.1526 338.731 83.2679 338.39 82.4424C338.049 81.6168 337.549 80.8666 336.918 80.2346C336.286 79.6026 335.537 79.1012 334.712 78.7591C333.887 78.417 333.002 78.241 332.109 78.241Z" fill="#0E0F2D"/>
<path d="M416.394 123.919C421.484 92.4269 400.08 62.7716 368.588 57.682C337.096 52.5924 307.441 73.9958 302.351 105.488C297.262 136.98 318.665 166.635 350.157 171.725C381.649 176.814 411.305 155.411 416.394 123.919Z" fill="white" stroke="#D8DBDE" stroke-width="2.8882" stroke-miterlimit="10"/>
<path d="M326.793 117.153L337.296 102.55H347.721L337.518 117.153L347.73 131.704H337.296L326.793 117.153Z" fill="#C6B92D"/>
<path d="M367.999 79.8928H378.356L353.764 150.081H343.441L367.999 79.8928Z" fill="#C6B92D"/>
<path d="M372.912 131.687L383.124 117.136L372.912 102.55H383.346L393.849 117.153L383.346 131.704L372.912 131.687Z" fill="#C6B92D"/>
<path d="M104.201 87.4595H57.9794C56.012 87.4583 54.0637 87.845 52.2458 88.5974C50.4279 89.3498 48.7762 90.4531 47.385 91.8443C45.9938 93.2355 44.8905 94.8872 44.1381 96.7051C43.3857 98.523 42.9991 100.471 43.0002 102.439V108.43C43.0002 112.403 44.5784 116.213 47.3875 119.022C50.1967 121.832 54.0067 123.41 57.9794 123.41H78.4197L89.0764 142.523L100.82 123.41H104.244C108.209 123.398 112.008 121.815 114.808 119.007C117.608 116.199 119.18 112.396 119.18 108.43V102.439C119.182 100.471 118.795 98.523 118.042 96.7051C117.29 94.8872 116.187 93.2355 114.796 91.8443C113.404 90.4531 111.753 89.3498 109.935 88.5974C108.117 87.845 106.169 87.4583 104.201 87.4595Z" fill="#C6B92D"/>
<path d="M59.2633 105.623C59.2405 104.832 59.3803 104.045 59.6739 103.31C59.9675 102.575 60.4087 101.908 60.9703 101.35C61.5319 100.793 62.2019 100.356 62.9389 100.068C63.6758 99.7797 64.4641 99.6456 65.255 99.674C66.0461 99.6443 66.835 99.7775 67.5725 100.065C68.3101 100.353 68.9806 100.79 69.5424 101.348C70.1042 101.905 70.5454 102.573 70.8386 103.308C71.1318 104.044 71.2707 104.832 71.2467 105.623C71.2467 107.212 70.6154 108.736 69.4917 109.86C68.3681 110.983 66.8441 111.615 65.255 111.615C63.6659 111.615 62.1418 110.983 61.0182 109.86C59.8945 108.736 59.2633 107.212 59.2633 105.623Z" fill="white"/>
<path d="M75.5269 105.623C75.5029 104.832 75.6418 104.044 75.9349 103.308C76.2281 102.573 76.6693 101.905 77.2312 101.348C77.793 100.79 78.4635 100.353 79.201 100.065C79.9386 99.7775 80.7274 99.6443 81.5186 99.674C82.3098 99.6443 83.0986 99.7775 83.8362 100.065C84.5737 100.353 85.2442 100.79 85.806 101.348C86.3679 101.905 86.8091 102.573 87.1023 103.308C87.3954 104.044 87.5343 104.832 87.5103 105.623C87.5103 107.212 86.879 108.736 85.7554 109.86C84.6317 110.983 83.1077 111.615 81.5186 111.615C79.9295 111.615 78.4055 110.983 77.2818 109.86C76.1582 108.736 75.5269 107.212 75.5269 105.623Z" fill="white"/>
<path d="M91.7897 105.623C91.7897 104.034 92.421 102.51 93.5447 101.386C94.6683 100.263 96.1923 99.6313 97.7814 99.6313C99.3705 99.6313 100.895 100.263 102.018 101.386C103.142 102.51 103.773 104.034 103.773 105.623C103.773 107.212 103.142 108.736 102.018 109.86C100.895 110.983 99.3705 111.615 97.7814 111.615C96.1923 111.615 94.6683 110.983 93.5447 109.86C92.421 108.736 91.7897 107.212 91.7897 105.623Z" fill="white"/>
</svg>
